{
  "accessors": [
    {
      "bufferView": 2,
      "componentType": 5126,
      "count": 1175,
      "max": [
        0.023604651913046837,
        0.024106988683342934,
        0.008953746408224106
      ],
      "min": [
        -0.02351057156920433,
        -0.02176872454583645,
        -0.017014222219586372
      ],
      "type": "VEC3"
    },
    {
      "bufferView": 2,
      "byteOffset": 14100,
      "componentType": 5126,
      "count": 1175,
      "max": [
        1.0,
        1.0,
        1.0
      ],
      "min": [
        -1.0,
        -1.0,
        -1.0
      ],
      "type": "VEC3"
    },
    {
      "bufferView": 1,
      "componentType": 5126,
      "count": 1175,
      "max": [
        0.0,
        0.0
      ],
      "min": [
        0.0,
        0.0
      ],
      "type": "VEC2"
    },
    {
      "bufferView": 0,
      "componentType": 5125,
      "count": 1206,
      "type": "SCALAR"
    },
    {
      "bufferView": 2,
      "byteOffset": 28200,
      "componentType": 5126,
      "count": 88,
      "max": [
        0.016198204830288887,
        0.014028042554855347,
        0.044413965195417404
      ],
      "min": [
        -0.008541223593056202,
        -0.014028070494532585,
        -0.011470021679997444
      ],
      "type": "VEC3"
    },
    {
      "bufferView": 2,
      "byteOffset": 29256,
      "componentType": 5126,
      "count": 88,
      "max": [
        0.9659261107444763,
        0.9659262895584106,
        1.0956676277373845e-07
      ],
      "min": [
        -0.9659260511398315,
        -0.965925931930542,
        -1.0
      ],
      "type": "VEC3"
    },
    {
      "bufferView": 1,
      "byteOffset": 9400,
      "componentType": 5126,
      "count": 88,
      "max": [
        1.0,
        1.0
      ],
      "min": [
        0.0,
        0.0
      ],
      "type": "VEC2"
    },
    {
      "bufferView": 0,
      "byteOffset": 4824,
      "componentType": 5125,
      "count": 90,
      "type": "SCALAR"
    },
    {
      "bufferView": 2,
      "byteOffset": 30312,
      "componentType": 5126,
      "count": 1836,
      "max": [
        0.023383701220154762,
        0.023985056206583977,
        0.0882909893989563
      ],
      "min": [
        -0.023383690044283867,
        -0.02160978876054287,
        -0.0028729531913995743
      ],
      "type": "VEC3"
    },
    {
      "bufferView": 2,
      "byteOffset": 52344,
      "componentType": 5126,
      "count": 1836,
      "max": [
        0.9749281406402588,
        1.0,
        1.0
      ],
      "min": [
        -0.9749281406402588,
        -1.0,
        -1.0
      ],
      "type": "VEC3"
    },
    {
      "bufferView": 1,
      "byteOffset": 10104,
      "componentType": 5126,
      "count": 1836,
      "max": [
        0.0,
        0.0
      ],
      "min": [
        0.0,
        0.0
      ],
      "type": "VEC2"
    },
    {
      "bufferView": 0,
      "byteOffset": 5184,
      "componentType": 5125,
      "count": 1920,
      "type": "SCALAR"
    },
    {
      "bufferView": 2,
      "byteOffset": 74376,
      "componentType": 5126,
      "count": 6758,
      "max": [
        0.023604651913046837,
        0.024106988683342934,
        0.10005661845207214
      ],
      "min": [
        -0.02351057156920433,
        -0.02176872454583645,
        -0.11113926023244858
      ],
      "type": "VEC3"
    },
    {
      "bufferView": 2,
      "byteOffset": 155472,
      "componentType": 5126,
      "count": 6758,
      "max": [
        1.0,
        1.0,
        1.0
      ],
      "min": [
        -1.0,
        -1.0,
        -1.0
      ],
      "type": "VEC3"
    },
    {
      "bufferView": 1,
      "byteOffset": 24792,
      "componentType": 5126,
      "count": 6758,
      "max": [
        0.0,
        0.0
      ],
      "min": [
        0.0,
        0.0
      ],
      "type": "VEC2"
    },
    {
      "bufferView": 0,
      "byteOffset": 12864,
      "componentType": 5125,
      "count": 6870,
      "type": "SCALAR"
    },
    {
      "bufferView": 2,
      "byteOffset": 236568,
      "componentType": 5126,
      "count": 88,
      "max": [
        0.016198204830288887,
        0.014028042554855347,
        -0.04971107468008995
      ],
      "min": [
        -0.008541223593056202,
        -0.014028070494532585,
        -0.10559505969285965
      ],
      "type": "VEC3"
    },
    {
      "bufferView": 2,
      "byteOffset": 237624,
      "componentType": 5126,
      "count": 88,
      "max": [
        0.9659261107444763,
        0.9659260511398315,
        1.0956672724660166e-07
      ],
      "min": [
        -0.9659260511398315,
        -0.9659258723258972,
        -1.0
      ],
      "type": "VEC3"
    },
    {
      "bufferView": 1,
      "byteOffset": 78856,
      "componentType": 5126,
      "count": 88,
      "max": [
        1.0,
        1.0
      ],
      "min": [
        0.0,
        0.0
      ],
      "type": "VEC2"
    },
    {
      "bufferView": 0,
      "byteOffset": 40344,
      "componentType": 5125,
      "count": 90,
      "type": "SCALAR"
    },
    {
      "bufferView": 2,
      "byteOffset": 238680,
      "componentType": 5126,
      "count": 466,
      "max": [
        0.023387307301163673,
        0.0239887535572052,
        0.008908640593290329
      ],
      "min": [
        -0.023387303575873375,
        -0.02161313220858574,
        -0.0028569900896400213
      ],
      "type": "VEC3"
    },
    {
      "bufferView": 2,
      "byteOffset": 244272,
      "componentType": 5126,
      "count": 466,
      "max": [
        0.9749272465705872,
        1.0,
        1.0
      ],
      "min": [
        -0.9749273657798767,
        -1.0,
        -0.9999963045120239
      ],
      "type": "VEC3"
    },
    {
      "bufferView": 1,
      "byteOffset": 79560,
      "componentType": 5126,
      "count": 466,
      "max": [
        0.0,
        0.0
      ],
      "min": [
        0.0,
        0.0
      ],
      "type": "VEC2"
    },
    {
      "bufferView": 0,
      "byteOffset": 40704,
      "componentType": 5125,
      "count": 468,
      "type": "SCALAR"
    }
  ],
  "asset": {
    "extras": {
      "author": "notcplkerry (https://sketchfab.com/notcplkerry)",
      "license": "CC-BY-4.0 (http://creativecommons.org/licenses/by/4.0/)",
      "source": "https://sketchfab.com/3d-models/low-poly-ak-hexagon-suppressor-67d899ced2614887850c9af820786a89",
      "title": "Low-poly AK hexagon suppressor"
    },
    "generator": "Sketchfab-15.10.0",
    "version": "2.0"
  },
  "bufferViews": [
    {
      "buffer": 0,
      "byteLength": 42576,
      "name": "floatBufferViews",
      "target": 34963
    },
    {
      "buffer": 0,
      "byteLength": 83288,
      "byteOffset": 42576,
      "byteStride": 8,
      "name": "floatBufferViews",
      "target": 34962
    },
    {
      "buffer": 0,
      "byteLength": 249864,
      "byteOffset": 125864,
      "byteStride": 12,
      "name": "floatBufferViews",
      "target": 34962
    }
  ],
  "buffers": [
    {
      "byteLength": 375728,
      "uri": "scene.bin"
    }
  ],
  "materials": [
    {
      "doubleSided": true,
      "name": "suppressor",
      "pbrMetallicRoughness": {
        "baseColorFactor": [
          0.0310633,
          0.0310633,
          0.0310633,
          1.0
        ],
        "roughnessFactor": 0.791339
      }
    },
    {
      "doubleSided": true,
      "name": "secondary",
      "pbrMetallicRoughness": {
        "baseColorFactor": [
          0.157433,
          0.157433,
          0.157433,
          1.0
        ],
        "roughnessFactor": 0.358268
      }
    }
  ],
  "meshes": [
    {
      "name": "Object_0",
      "primitives": [
        {
          "attributes": {
            "NORMAL": 1,
            "POSITION": 0,
            "TEXCOORD_0": 2
          },
          "indices": 3,
          "material": 0,
          "mode": 4
        }
      ]
    },
    {
      "name": "Object_1",
      "primitives": [
        {
          "attributes": {
            "NORMAL": 5,
            "POSITION": 4,
            "TEXCOORD_0": 6
          },
          "indices": 7,
          "material": 1,
          "mode": 4
        }
      ]
    },
    {
      "name": "Object_2",
      "primitives": [
        {
          "attributes": {
            "NORMAL": 9,
            "POSITION": 8,
            "TEXCOORD_0": 10
          },
          "indices": 11,
          "material": 0,
          "mode": 4
        }
      ]
    },
    {
      "name": "Object_3",
      "primitives": [
        {
          "attributes": {
            "NORMAL": 13,
            "POSITION": 12,
            "TEXCOORD_0": 14
          },
          "indices": 15,
          "material": 0,
          "mode": 4
        }
      ]
    },
    {
      "name": "Object_4",
      "primitives": [
        {
          "attributes": {
            "NORMAL": 17,
            "POSITION": 16,
            "TEXCOORD_0": 18
          },
          "indices": 19,
          "material": 1,
          "mode": 4
        }
      ]
    },
    {
      "name": "Object_5",
      "primitives": [
        {
          "attributes": {
            "NORMAL": 21,
            "POSITION": 20,
            "TEXCOORD_0": 22
          },
          "indices": 23,
          "material": 0,
          "mode": 4
        }
      ]
    }
  ],
  "nodes": [
    {
      "children": [
        1
      ],
      "matrix": [
        1.0,
        0.0,
        0.0,
        0.0,
        0.0,
        2.220446049250313e-16,
        -1.0,
        0.0,
        0.0,
        1.0,
        2.220446049250313e-16,
        0.0,
        0.0,
        0.0,
        0.0,
        1.0
      ],
      "name": "Sketchfab_model"
    },
    {
      "children": [
        2
      ],
      "name": "root"
    },
    {
      "children": [
        3,
        6,
        8,
        11
      ],
      "matrix": [
        1.0,
        0.0,
        0.0,
        0.0,
        0.0,
        2.220446049250313e-16,
        1.0,
        0.0,
        0.0,
        -1.0,
        2.220446049250313e-16,
        0.0,
        0.0,
        0.0,
        0.0,
        1.0
      ],
      "name": "GLTF_SceneRootNode"
    },
    {
      "children": [
        4,
        5
      ],
      "matrix": [
        1.0,
        0.0,
        0.0,
        0.0,
        0.0,
        1.0,
        0.0,
        0.0,
        0.0,
        0.0,
        0.8499332666397095,
        0.0,
        0.0,
        -0.05999999865889549,
        -0.20295999944210052,
        1.0
      ],
      "name": "end_0"
    },
    {
      "mesh": 0,
      "name": "Object_4"
    },
    {
      "mesh": 1,
      "name": "Object_5"
    },
    {
      "children": [
        7
      ],
      "matrix": [
        1.0,
        0.0,
        0.0,
        0.0,
        0.0,
        1.0,
        0.0,
        0.0,
        0.0,
        0.0,
        0.8499332666397095,
        0.0,
        0.0,
        -0.0599999874830246,
        -0.059377484023571014,
        1.0
      ],
      "name": "base_1"
    },
    {
      "mesh": 2,
      "name": "Object_7"
    },
    {
      "children": [
        9,
        10
      ],
      "matrix": [
        1.0,
        0.0,
        0.0,
        0.0,
        0.0,
        1.0,
        0.0,
        0.0,
        0.0,
        0.0,
        0.8499332666397095,
        0.0,
        0.0,
        0.0,
        -0.11296000331640244,
        1.0
      ],
      "name": "full_suppressor_2"
    },
    {
      "mesh": 3,
      "name": "Object_9"
    },
    {
      "mesh": 4,
      "name": "Object_10"
    },
    {
      "children": [
        12
      ],
      "matrix": [
        1.0,
        0.0,
        0.0,
        0.0,
        0.0,
        1.0,
        0.0,
        0.0,
        0.0,
        0.0,
        0.8499332666397095,
        0.0,
        0.0,
        -0.05999999865889549,
        -0.11296000331640244,
        1.0
      ],
      "name": "extension_3"
    },
    {
      "mesh": 5,
      "name": "Object_12"
    }
  ],
  "scene": 0,
  "scenes": [
    {
      "name": "Sketchfab_Scene",
      "nodes": [
        0
      ]
    }
  ]
}
